<svg xmlns="http://www.w3.org/2000/svg" xmlns:xlink="http://www.w3.org/1999/xlink" width="100" zoomAndPan="magnify" viewBox="0 0 75 74.999997" height="100" preserveAspectRatio="xMidYMid meet" version="1.0"><defs><g/><clipPath id="337487ae9b"><path d="M 60.246094 36.519531 L 67 36.519531 L 67 44 L 60.246094 44 Z M 60.246094 36.519531 " clip-rule="nonzero"/></clipPath><clipPath id="f31773267b"><path d="M 61 36.519531 L 67.746094 36.519531 L 67.746094 44 L 61 44 Z M 61 36.519531 " clip-rule="nonzero"/></clipPath><clipPath id="83ed7388be"><path d="M 8 33 L 29.074219 33 L 29.074219 44.796875 L 8 44.796875 Z M 8 33 " clip-rule="nonzero"/></clipPath><clipPath id="a6082429f4"><path d="M 7.5 36 L 12 36 L 12 39 L 7.5 39 Z M 7.5 36 " clip-rule="nonzero"/></clipPath></defs><g clip-path="url(#337487ae9b)"><path fill="#ea1d26" d="M 60.25 36.675781 L 66.339844 40.257812 L 60.25 43.746094 L 61.644531 40.210938 L 60.25 36.675781 " fill-opacity="1" fill-rule="nonzero"/></g><g clip-path="url(#f31773267b)"><path fill="#eef2fb" d="M 61.164062 36.808594 C 61.585938 37.054688 62.007812 37.304688 62.429688 37.550781 C 63.28125 38.054688 64.136719 38.558594 64.992188 39.058594 C 65.664062 39.457031 66.335938 39.851562 67.011719 40.246094 C 67.089844 40.292969 67.171875 40.34375 67.253906 40.390625 L 67.253906 40.121094 C 66.828125 40.367188 66.402344 40.609375 65.976562 40.855469 C 65.117188 41.347656 64.257812 41.839844 63.394531 42.332031 C 62.726562 42.71875 62.058594 43.101562 61.386719 43.484375 C 61.3125 43.527344 61.238281 43.570312 61.164062 43.613281 C 61.242188 43.671875 61.316406 43.730469 61.394531 43.789062 C 61.65625 43.121094 61.917969 42.453125 62.183594 41.78125 C 62.34375 41.375 62.503906 40.96875 62.664062 40.5625 C 62.699219 40.464844 62.738281 40.371094 62.777344 40.273438 C 62.800781 40.207031 62.78125 40.160156 62.757812 40.097656 C 62.445312 39.308594 62.136719 38.519531 61.824219 37.730469 C 61.679688 37.363281 61.535156 37 61.394531 36.632812 C 61.363281 36.554688 61.289062 36.5 61.203125 36.523438 C 61.125 36.546875 61.0625 36.636719 61.09375 36.714844 C 61.355469 37.382812 61.621094 38.054688 61.882812 38.722656 C 62.082031 39.230469 62.285156 39.742188 62.484375 40.253906 L 62.484375 40.167969 C 62.222656 40.839844 61.957031 41.507812 61.695312 42.175781 C 61.496094 42.6875 61.292969 43.195312 61.09375 43.707031 C 61.039062 43.839844 61.210938 43.945312 61.320312 43.882812 C 61.746094 43.636719 62.171875 43.394531 62.597656 43.148438 C 63.457031 42.65625 64.320312 42.164062 65.179688 41.667969 C 65.847656 41.285156 66.519531 40.902344 67.1875 40.519531 C 67.261719 40.476562 67.335938 40.433594 67.410156 40.390625 C 67.511719 40.332031 67.511719 40.179688 67.410156 40.121094 C 66.988281 39.875 66.566406 39.625 66.148438 39.378906 C 65.292969 38.875 64.4375 38.375 63.582031 37.871094 C 62.910156 37.476562 62.238281 37.078125 61.566406 36.683594 C 61.484375 36.636719 61.402344 36.585938 61.320312 36.539062 C 61.148438 36.4375 60.992188 36.707031 61.164062 36.808594 " fill-opacity="1" fill-rule="nonzero"/></g><path fill="#ea1d26" d="M 20.585938 41.503906 L 59.1875 41.503906 L 59.1875 41.964844 L 20.585938 41.964844 Z M 20.585938 41.503906 " fill-opacity="1" fill-rule="nonzero"/><g fill="#ea1d26" fill-opacity="1"><g transform="translate(20.587607, 41.04106)"><g><path d="M 2.15625 -2.21875 L 4.171875 -2.21875 C 4.578125 -2.21875 4.882812 -2.144531 5.09375 -2 C 5.300781 -1.863281 5.40625 -1.660156 5.40625 -1.390625 C 5.40625 -1.117188 5.34375 -0.878906 5.21875 -0.671875 C 5.09375 -0.460938 4.894531 -0.296875 4.625 -0.171875 C 4.363281 -0.0546875 4.015625 0 3.578125 0 L 0.125 0 L 1.03125 -0.953125 L 3.84375 -0.953125 C 4 -0.953125 4.109375 -0.976562 4.171875 -1.03125 C 4.242188 -1.082031 4.28125 -1.160156 4.28125 -1.265625 C 4.28125 -1.410156 4.164062 -1.484375 3.9375 -1.484375 L 1.90625 -1.484375 C 1.488281 -1.484375 1.179688 -1.5625 0.984375 -1.71875 C 0.796875 -1.882812 0.703125 -2.101562 0.703125 -2.375 C 0.703125 -2.625 0.757812 -2.847656 0.875 -3.046875 C 1 -3.253906 1.191406 -3.414062 1.453125 -3.53125 C 1.722656 -3.644531 2.070312 -3.703125 2.5 -3.703125 L 5.71875 -3.703125 L 4.8125 -2.734375 L 2.25 -2.734375 C 2.09375 -2.734375 1.976562 -2.707031 1.90625 -2.65625 C 1.832031 -2.613281 1.796875 -2.539062 1.796875 -2.4375 C 1.796875 -2.289062 1.914062 -2.21875 2.15625 -2.21875 Z M 2.15625 -2.21875 "/></g></g></g><g fill="#ea1d26" fill-opacity="1"><g transform="translate(25.921597, 41.04106)"><g><path d="M 1.671875 -0.953125 L 4.8125 -0.953125 L 3.90625 0 L 0.34375 0 L 1 -3.703125 L 5.28125 -3.703125 L 4.375 -2.734375 L 1.984375 -2.734375 L 1.90625 -2.296875 L 4.828125 -2.296875 L 4.03125 -1.453125 L 1.75 -1.453125 Z M 1.671875 -0.953125 "/></g></g></g><g fill="#ea1d26" fill-opacity="1"><g transform="translate(30.618611, 41.04106)"><g><path d="M 5.03125 -0.71875 L 5.59375 0 L 4.0625 0 L 3.40625 -0.984375 L 1.65625 -0.984375 L 1.484375 0 L 0.34375 0 L 0.671875 -1.890625 L 3.890625 -1.890625 C 4.078125 -1.890625 4.242188 -1.929688 4.390625 -2.015625 C 4.535156 -2.109375 4.609375 -2.226562 4.609375 -2.375 C 4.609375 -2.5 4.554688 -2.585938 4.453125 -2.640625 C 4.347656 -2.703125 4.207031 -2.734375 4.03125 -2.734375 L 0.8125 -2.734375 L 1.734375 -3.703125 L 4.109375 -3.703125 C 4.304688 -3.703125 4.503906 -3.679688 4.703125 -3.640625 C 4.898438 -3.609375 5.082031 -3.550781 5.25 -3.46875 C 5.414062 -3.382812 5.550781 -3.269531 5.65625 -3.125 C 5.757812 -2.976562 5.8125 -2.796875 5.8125 -2.578125 C 5.8125 -2.359375 5.757812 -2.148438 5.65625 -1.953125 C 5.5625 -1.765625 5.421875 -1.601562 5.234375 -1.46875 C 5.054688 -1.34375 4.847656 -1.253906 4.609375 -1.203125 C 4.660156 -1.160156 4.71875 -1.097656 4.78125 -1.015625 C 4.851562 -0.941406 4.9375 -0.84375 5.03125 -0.71875 Z M 5.03125 -0.71875 "/></g></g></g><g fill="#ea1d26" fill-opacity="1"><g transform="translate(35.875064, 41.04106)"><g><path d="M 0.71875 -3.703125 L 2.125 -3.703125 L 3.359375 -1.25 L 5.515625 -3.703125 L 6.875 -3.703125 L 3.90625 -0.359375 C 3.8125 -0.242188 3.695312 -0.144531 3.5625 -0.0625 C 3.4375 0.0195312 3.28125 0.0625 3.09375 0.0625 C 2.925781 0.0625 2.789062 0.0195312 2.6875 -0.0625 C 2.582031 -0.144531 2.5 -0.242188 2.4375 -0.359375 Z M 0.71875 -3.703125 "/></g></g></g><g fill="#ea1d26" fill-opacity="1"><g transform="translate(42.161755, 41.04106)"><g><path d="M 2.15625 -3.703125 L 1.515625 0 L 0.359375 0 L 1.015625 -3.703125 Z M 2.15625 -3.703125 "/></g></g></g><g fill="#ea1d26" fill-opacity="1"><g transform="translate(44.039451, 41.04106)"><g><path d="M 2.625 -0.953125 L 5.21875 -0.953125 L 4.3125 0 L 2.46875 0 C 2.082031 0 1.742188 -0.0664062 1.453125 -0.203125 C 1.160156 -0.347656 0.929688 -0.546875 0.765625 -0.796875 C 0.609375 -1.046875 0.53125 -1.320312 0.53125 -1.625 C 0.53125 -1.9375 0.597656 -2.21875 0.734375 -2.46875 C 0.867188 -2.71875 1.050781 -2.929688 1.28125 -3.109375 C 1.519531 -3.296875 1.796875 -3.441406 2.109375 -3.546875 C 2.421875 -3.648438 2.753906 -3.703125 3.109375 -3.703125 L 5.703125 -3.703125 L 4.796875 -2.734375 L 2.9375 -2.734375 C 2.71875 -2.734375 2.507812 -2.6875 2.3125 -2.59375 C 2.125 -2.507812 1.972656 -2.390625 1.859375 -2.234375 C 1.742188 -2.085938 1.6875 -1.914062 1.6875 -1.71875 C 1.6875 -1.488281 1.769531 -1.300781 1.9375 -1.15625 C 2.113281 -1.019531 2.34375 -0.953125 2.625 -0.953125 Z M 2.625 -0.953125 "/></g></g></g><g fill="#ea1d26" fill-opacity="1"><g transform="translate(49.151887, 41.04106)"><g><path d="M 1.671875 -0.953125 L 4.8125 -0.953125 L 3.90625 0 L 0.34375 0 L 1 -3.703125 L 5.28125 -3.703125 L 4.375 -2.734375 L 1.984375 -2.734375 L 1.90625 -2.296875 L 4.828125 -2.296875 L 4.03125 -1.453125 L 1.75 -1.453125 Z M 1.671875 -0.953125 "/></g></g></g><g fill="#ea1d26" fill-opacity="1"><g transform="translate(53.848901, 41.04106)"><g><path d="M 2.15625 -2.21875 L 4.171875 -2.21875 C 4.578125 -2.21875 4.882812 -2.144531 5.09375 -2 C 5.300781 -1.863281 5.40625 -1.660156 5.40625 -1.390625 C 5.40625 -1.117188 5.34375 -0.878906 5.21875 -0.671875 C 5.09375 -0.460938 4.894531 -0.296875 4.625 -0.171875 C 4.363281 -0.0546875 4.015625 0 3.578125 0 L 0.125 0 L 1.03125 -0.953125 L 3.84375 -0.953125 C 4 -0.953125 4.109375 -0.976562 4.171875 -1.03125 C 4.242188 -1.082031 4.28125 -1.160156 4.28125 -1.265625 C 4.28125 -1.410156 4.164062 -1.484375 3.9375 -1.484375 L 1.90625 -1.484375 C 1.488281 -1.484375 1.179688 -1.5625 0.984375 -1.71875 C 0.796875 -1.882812 0.703125 -2.101562 0.703125 -2.375 C 0.703125 -2.625 0.757812 -2.847656 0.875 -3.046875 C 1 -3.253906 1.191406 -3.414062 1.453125 -3.53125 C 1.722656 -3.644531 2.070312 -3.703125 2.5 -3.703125 L 5.71875 -3.703125 L 4.8125 -2.734375 L 2.25 -2.734375 C 2.09375 -2.734375 1.976562 -2.707031 1.90625 -2.65625 C 1.832031 -2.613281 1.796875 -2.539062 1.796875 -2.4375 C 1.796875 -2.289062 1.914062 -2.21875 2.15625 -2.21875 Z M 2.15625 -2.21875 "/></g></g></g><path fill="#eef2fb" d="M 10.71875 43.398438 C 11.132812 43.765625 11.679688 43.949219 12.234375 43.941406 L 26.570312 43.683594 L 12.882812 43.460938 C 12.238281 43.453125 11.59375 43.351562 10.984375 43.140625 C 10.730469 43.050781 10.476562 42.941406 10.253906 42.804688 C 10.253906 42.804688 10.382812 43.097656 10.71875 43.398438 " fill-opacity="1" fill-rule="nonzero"/><path fill="#eef2fb" d="M 12.726562 36.777344 C 12.957031 35.886719 13.957031 34.839844 13.957031 34.839844 C 16.179688 34.03125 20.566406 33.976562 20.566406 33.976562 C 18.425781 33.679688 14.628906 33.785156 13.625 34.660156 C 12.910156 35.28125 12.214844 36.4375 11.875 37.046875 C 11.785156 37.207031 11.921875 37.402344 12.105469 37.375 C 16.921875 36.644531 23.476562 36.785156 23.476562 36.785156 C 18.039062 35.917969 12.726562 36.777344 12.726562 36.777344 " fill-opacity="1" fill-rule="nonzero"/><path fill="#eef2fb" d="M 15.328125 41.191406 C 16.273438 41.3125 18.863281 41.398438 19.6875 40.800781 C 19.6875 40.800781 16.804688 41.050781 15.304688 40.703125 C 13.808594 40.355469 13.066406 42.613281 13.378906 42.976562 C 13.691406 43.339844 16.0625 43.222656 16.0625 43.222656 C 16.0625 43.222656 14.207031 43.089844 13.902344 42.628906 C 13.59375 42.167969 14.382812 41.070312 15.328125 41.191406 " fill-opacity="1" fill-rule="nonzero"/><path fill="#eef2fb" d="M 9.980469 39.0625 C 9.980469 39.0625 9.519531 40.621094 10.835938 41.09375 C 12.15625 41.566406 13.648438 40.753906 13.648438 40.753906 C 13.648438 40.753906 11.582031 41.148438 10.933594 40.496094 C 10.28125 39.847656 10.636719 39.476562 10.636719 39.476562 C 10.636719 39.476562 11.410156 39.285156 12.117188 39.929688 C 12.828125 40.570312 14.105469 39.960938 14.105469 39.960938 C 14.105469 39.960938 12.769531 39.765625 12 39.136719 C 11.234375 38.511719 9.980469 39.0625 9.980469 39.0625 " fill-opacity="1" fill-rule="nonzero"/><g clip-path="url(#83ed7388be)"><path fill="#eef2fb" d="M 9.691406 44.390625 C 9.316406 44.390625 9.007812 44.089844 8.996094 43.714844 C 8.945312 42.257812 8.964844 40.160156 8.964844 40.160156 C 9.503906 39.273438 10.125 38.632812 10.125 38.632812 C 9.476562 37.558594 11.496094 37.394531 11.496094 37.394531 C 12.054688 36.019531 13.308594 34.550781 13.308594 34.550781 C 15.199219 33.1875 21.003906 33.359375 21.003906 33.359375 C 17.332031 32.796875 13.742188 33.359375 13.015625 34.015625 C 12.292969 34.675781 11.269531 36.71875 11.269531 36.71875 C 11.269531 36.71875 10.085938 37.078125 9.65625 37.449219 C 9.230469 37.816406 9.375 38.644531 9.375 38.644531 C 8.785156 39.238281 8.5 39.863281 8.5 39.863281 L 8.257812 43.792969 C 8.148438 44.980469 8.851562 45.066406 8.851562 45.066406 L 29.074219 44.5625 L 9.691406 44.390625 " fill-opacity="1" fill-rule="nonzero"/></g><g clip-path="url(#a6082429f4)"><path fill="#eef2fb" d="M 9.234375 38.019531 C 9.234375 38.019531 9.128906 37.523438 9.558594 37.273438 C 9.558594 37.273438 9.03125 37.320312 8.609375 37.464844 C 8.1875 37.605469 8.300781 36.855469 8.949219 36.859375 C 9.597656 36.867188 10.023438 36.96875 10.023438 36.96875 C 10.023438 36.96875 10.546875 36.683594 11.050781 36.554688 C 11.050781 36.554688 9.167969 36.097656 8.332031 36.480469 C 7.5 36.867188 7.738281 38.074219 8.246094 38.207031 C 8.75 38.335938 9.234375 38.019531 9.234375 38.019531 " fill-opacity="1" fill-rule="nonzero"/></g></svg>