<svg xmlns="http://www.w3.org/2000/svg" xmlns:xlink="http://www.w3.org/1999/xlink" width="100" zoomAndPan="magnify" viewBox="0 0 75 74.999997" height="100" preserveAspectRatio="xMidYMid meet" version="1.0"><defs><g/><clipPath id="092b2b6abd"><path d="M 55.945312 33.804688 L 63 33.804688 L 63 41.304688 L 55.945312 41.304688 Z M 55.945312 33.804688 " clip-rule="nonzero"/></clipPath><clipPath id="215eb355ab"><path d="M 56 33.804688 L 63.445312 33.804688 L 63.445312 41.304688 L 56 41.304688 Z M 56 33.804688 " clip-rule="nonzero"/></clipPath></defs><g clip-path="url(#092b2b6abd)"><path fill="#ea1d26" d="M 55.949219 33.960938 L 62.039062 37.542969 L 55.949219 41.035156 L 57.34375 37.496094 L 55.949219 33.960938 " fill-opacity="1" fill-rule="nonzero"/></g><g clip-path="url(#215eb355ab)"><path fill="#eef2fb" d="M 56.863281 34.09375 C 57.285156 34.34375 57.707031 34.589844 58.125 34.839844 C 58.980469 35.339844 59.835938 35.84375 60.691406 36.347656 C 61.363281 36.742188 62.035156 37.136719 62.710938 37.535156 C 62.789062 37.582031 62.871094 37.628906 62.953125 37.675781 L 62.953125 37.40625 C 62.527344 37.652344 62.101562 37.894531 61.675781 38.140625 C 60.816406 38.632812 59.953125 39.125 59.09375 39.621094 C 58.425781 40.003906 57.753906 40.386719 57.085938 40.773438 C 57.011719 40.8125 56.9375 40.855469 56.863281 40.898438 C 56.9375 40.957031 57.015625 41.015625 57.089844 41.074219 C 57.355469 40.40625 57.617188 39.738281 57.882812 39.070312 C 58.042969 38.664062 58.203125 38.257812 58.363281 37.847656 C 58.398438 37.753906 58.4375 37.65625 58.476562 37.5625 C 58.5 37.496094 58.480469 37.445312 58.457031 37.386719 C 58.144531 36.59375 57.835938 35.804688 57.523438 35.015625 C 57.378906 34.652344 57.234375 34.285156 57.089844 33.917969 C 57.058594 33.839844 56.988281 33.785156 56.898438 33.8125 C 56.824219 33.832031 56.761719 33.921875 56.792969 34.003906 C 57.054688 34.671875 57.316406 35.339844 57.582031 36.007812 C 57.78125 36.519531 57.984375 37.027344 58.183594 37.539062 L 58.183594 37.457031 C 57.921875 38.125 57.65625 38.792969 57.394531 39.460938 C 57.191406 39.972656 56.992188 40.484375 56.792969 40.992188 C 56.738281 41.125 56.910156 41.230469 57.019531 41.167969 C 57.445312 40.925781 57.871094 40.679688 58.296875 40.4375 C 59.15625 39.941406 60.015625 39.449219 60.878906 38.957031 C 61.546875 38.574219 62.214844 38.1875 62.886719 37.804688 C 62.960938 37.761719 63.035156 37.71875 63.109375 37.675781 C 63.210938 37.617188 63.210938 37.464844 63.109375 37.40625 C 62.6875 37.160156 62.265625 36.914062 61.84375 36.664062 C 60.992188 36.164062 60.136719 35.660156 59.28125 35.15625 C 58.609375 34.761719 57.9375 34.367188 57.261719 33.96875 C 57.183594 33.921875 57.101562 33.875 57.019531 33.828125 C 56.847656 33.726562 56.691406 33.992188 56.863281 34.09375 " fill-opacity="1" fill-rule="nonzero"/></g><path fill="#ea1d26" d="M 14.375 39.296875 L 54.464844 39.296875 L 54.464844 39.777344 L 14.375 39.777344 Z M 14.375 39.296875 " fill-opacity="1" fill-rule="nonzero"/><g fill="#ea1d26" fill-opacity="1"><g transform="translate(14.37638, 38.816981)"><g><path d="M 2.25 -2.3125 L 4.328125 -2.3125 C 4.753906 -2.3125 5.070312 -2.238281 5.28125 -2.09375 C 5.5 -1.945312 5.609375 -1.726562 5.609375 -1.4375 C 5.609375 -1.164062 5.546875 -0.921875 5.421875 -0.703125 C 5.296875 -0.484375 5.09375 -0.3125 4.8125 -0.1875 C 4.539062 -0.0625 4.175781 0 3.71875 0 L 0.140625 0 L 1.078125 -0.984375 L 3.984375 -0.984375 C 4.148438 -0.984375 4.269531 -1.007812 4.34375 -1.0625 C 4.414062 -1.125 4.453125 -1.207031 4.453125 -1.3125 C 4.453125 -1.46875 4.332031 -1.546875 4.09375 -1.546875 L 1.984375 -1.546875 C 1.546875 -1.546875 1.222656 -1.628906 1.015625 -1.796875 C 0.816406 -1.960938 0.71875 -2.1875 0.71875 -2.46875 C 0.71875 -2.726562 0.78125 -2.960938 0.90625 -3.171875 C 1.039062 -3.378906 1.242188 -3.539062 1.515625 -3.65625 C 1.796875 -3.78125 2.160156 -3.84375 2.609375 -3.84375 L 5.953125 -3.84375 L 5 -2.84375 L 2.328125 -2.84375 C 2.171875 -2.84375 2.054688 -2.816406 1.984375 -2.765625 C 1.910156 -2.722656 1.875 -2.644531 1.875 -2.53125 C 1.875 -2.382812 2 -2.3125 2.25 -2.3125 Z M 2.25 -2.3125 "/></g></g></g><g fill="#ea1d26" fill-opacity="1"><g transform="translate(19.916352, 38.816981)"><g><path d="M 1.734375 -0.984375 L 5.015625 -0.984375 L 4.0625 0 L 0.359375 0 L 1.046875 -3.84375 L 5.5 -3.84375 L 4.546875 -2.84375 L 2.0625 -2.84375 L 1.984375 -2.390625 L 5.015625 -2.390625 L 4.1875 -1.515625 L 1.828125 -1.515625 Z M 1.734375 -0.984375 "/></g></g></g><g fill="#ea1d26" fill-opacity="1"><g transform="translate(24.79475, 38.816981)"><g><path d="M 5.234375 -0.75 L 5.8125 0 L 4.21875 0 L 3.546875 -1.015625 L 1.71875 -1.015625 L 1.546875 0 L 0.34375 0 L 0.703125 -1.96875 L 4.046875 -1.96875 C 4.242188 -1.96875 4.414062 -2.007812 4.5625 -2.09375 C 4.707031 -2.1875 4.78125 -2.3125 4.78125 -2.46875 C 4.78125 -2.59375 4.726562 -2.6875 4.625 -2.75 C 4.519531 -2.8125 4.378906 -2.84375 4.203125 -2.84375 L 0.84375 -2.84375 L 1.8125 -3.84375 L 4.28125 -3.84375 C 4.476562 -3.84375 4.679688 -3.820312 4.890625 -3.78125 C 5.097656 -3.75 5.285156 -3.691406 5.453125 -3.609375 C 5.628906 -3.523438 5.769531 -3.40625 5.875 -3.25 C 5.976562 -3.101562 6.03125 -2.910156 6.03125 -2.671875 C 6.03125 -2.441406 5.976562 -2.226562 5.875 -2.03125 C 5.78125 -1.832031 5.640625 -1.664062 5.453125 -1.53125 C 5.265625 -1.394531 5.046875 -1.300781 4.796875 -1.25 C 4.847656 -1.195312 4.90625 -1.132812 4.96875 -1.0625 C 5.039062 -0.988281 5.128906 -0.882812 5.234375 -0.75 Z M 5.234375 -0.75 "/></g></g></g><g fill="#ea1d26" fill-opacity="1"><g transform="translate(30.25419, 38.816981)"><g><path d="M 0.75 -3.84375 L 2.203125 -3.84375 L 3.484375 -1.296875 L 5.734375 -3.84375 L 7.140625 -3.84375 L 4.0625 -0.375 C 3.96875 -0.257812 3.847656 -0.15625 3.703125 -0.0625 C 3.566406 0.0195312 3.40625 0.0625 3.21875 0.0625 C 3.039062 0.0625 2.898438 0.0195312 2.796875 -0.0625 C 2.691406 -0.144531 2.601562 -0.25 2.53125 -0.375 Z M 0.75 -3.84375 "/></g></g></g><g fill="#ea1d26" fill-opacity="1"><g transform="translate(36.783653, 38.816981)"><g><path d="M 2.25 -3.84375 L 1.5625 0 L 0.375 0 L 1.0625 -3.84375 Z M 2.25 -3.84375 "/></g></g></g><g fill="#ea1d26" fill-opacity="1"><g transform="translate(38.73386, 38.816981)"><g><path d="M 2.734375 -0.984375 L 5.421875 -0.984375 L 4.484375 0 L 2.5625 0 C 2.15625 0 1.800781 -0.0703125 1.5 -0.21875 C 1.207031 -0.363281 0.976562 -0.566406 0.8125 -0.828125 C 0.644531 -1.085938 0.5625 -1.378906 0.5625 -1.703125 C 0.5625 -2.015625 0.628906 -2.300781 0.765625 -2.5625 C 0.910156 -2.832031 1.101562 -3.0625 1.34375 -3.25 C 1.59375 -3.4375 1.878906 -3.582031 2.203125 -3.6875 C 2.523438 -3.789062 2.867188 -3.84375 3.234375 -3.84375 L 5.9375 -3.84375 L 4.984375 -2.84375 L 3.0625 -2.84375 C 2.820312 -2.84375 2.601562 -2.796875 2.40625 -2.703125 C 2.207031 -2.609375 2.046875 -2.484375 1.921875 -2.328125 C 1.804688 -2.171875 1.75 -1.988281 1.75 -1.78125 C 1.75 -1.539062 1.835938 -1.347656 2.015625 -1.203125 C 2.203125 -1.054688 2.441406 -0.984375 2.734375 -0.984375 Z M 2.734375 -0.984375 "/></g></g></g><g fill="#ea1d26" fill-opacity="1"><g transform="translate(44.043721, 38.816981)"><g><path d="M 1.734375 -0.984375 L 5.015625 -0.984375 L 4.0625 0 L 0.359375 0 L 1.046875 -3.84375 L 5.5 -3.84375 L 4.546875 -2.84375 L 2.0625 -2.84375 L 1.984375 -2.390625 L 5.015625 -2.390625 L 4.1875 -1.515625 L 1.828125 -1.515625 Z M 1.734375 -0.984375 "/></g></g></g><g fill="#ea1d26" fill-opacity="1"><g transform="translate(48.92212, 38.816981)"><g><path d="M 2.25 -2.3125 L 4.328125 -2.3125 C 4.753906 -2.3125 5.070312 -2.238281 5.28125 -2.09375 C 5.5 -1.945312 5.609375 -1.726562 5.609375 -1.4375 C 5.609375 -1.164062 5.546875 -0.921875 5.421875 -0.703125 C 5.296875 -0.484375 5.09375 -0.3125 4.8125 -0.1875 C 4.539062 -0.0625 4.175781 0 3.71875 0 L 0.140625 0 L 1.078125 -0.984375 L 3.984375 -0.984375 C 4.148438 -0.984375 4.269531 -1.007812 4.34375 -1.0625 C 4.414062 -1.125 4.453125 -1.207031 4.453125 -1.3125 C 4.453125 -1.46875 4.332031 -1.546875 4.09375 -1.546875 L 1.984375 -1.546875 C 1.546875 -1.546875 1.222656 -1.628906 1.015625 -1.796875 C 0.816406 -1.960938 0.71875 -2.1875 0.71875 -2.46875 C 0.71875 -2.726562 0.78125 -2.960938 0.90625 -3.171875 C 1.039062 -3.378906 1.242188 -3.539062 1.515625 -3.65625 C 1.796875 -3.78125 2.160156 -3.84375 2.609375 -3.84375 L 5.953125 -3.84375 L 5 -2.84375 L 2.328125 -2.84375 C 2.171875 -2.84375 2.054688 -2.816406 1.984375 -2.765625 C 1.910156 -2.722656 1.875 -2.644531 1.875 -2.53125 C 1.875 -2.382812 2 -2.3125 2.25 -2.3125 Z M 2.25 -2.3125 "/></g></g></g></svg>